<?xml version="1.0" standalone="no"?><!DOCTYPE svg PUBLIC "-//W3C//DTD SVG 1.1//EN" "http://www.w3.org/Graphics/SVG/1.1/DTD/svg11.dtd"><svg t="1623137571602" class="icon" viewBox="0 0 1024 1024" version="1.1" xmlns="http://www.w3.org/2000/svg" p-id="4560" xmlns:xlink="http://www.w3.org/1999/xlink" width="300" height="300"><defs><style type="text/css"></style></defs><path d="M541.8 512.6V122.2c0-16.4-14.4-29.7-32-29.7s-32 13.3-32 29.7v390.4c-54.6 13.2-95.2 59.8-95.2 115.2 0 55.5 40.6 102.1 95.5 115.3-0.2 1.2-0.3 2.5-0.3 3.7v148.7c0 16.4 14.4 29.7 32 29.7s32-13.3 32-29.7V746.8c0-1.2-0.1-2.5-0.3-3.7 55.1-13.1 95.8-59.8 95.8-115.3 0-55.4-40.6-102-95.5-115.2z m13.1 157.3c-21.5 20.1-55.1 23.2-80.3 7.4-25.2-15.8-35-46-23.4-72.2 11.6-26.2 41.4-41.1 71.2-35.6 29.8 5.5 51.2 30 51.2 58.3 0 15.8-6.7 31-18.7 42.1zM223.4 215.2c0.2-1.2 0.3-2.5 0.3-3.7v-89.2c0-10.6-6.1-20.4-15.9-25.7-9.8-5.3-21.9-5.3-31.8 0-9.8 5.3-15.9 15.1-15.9 25.7v89.2c0 1.3 0 2.5 0.2 3.8-54.9 13.2-95.6 59.8-95.6 115.3s40.7 102.1 95.6 115.3c-0.1 1.2-0.2 2.4-0.2 3.7v446.1c0 10.6 6.1 20.4 15.9 25.7 9.8 5.3 21.9 5.3 31.8 0 9.8-5.3 15.9-15.1 15.9-25.7V449.4c0-1.2-0.1-2.4-0.3-3.6 55.1-13.1 95.8-59.8 95.8-115.3 0-55.6-40.8-102.2-95.8-115.3z m13.5 157.3c-21.5 20.1-55.1 23.2-80.3 7.4-25.2-15.8-35-46-23.4-72.2 11.6-26.2 41.4-41.1 71.2-35.6 29.8 5.5 51.2 30 51.2 58.3-0.1 15.9-6.8 31-18.7 42.1z m718.4-42c0-55.6-40.8-102.2-95.9-115.3 0.1-1.2 0.2-2.5 0.2-3.7v-89.2c0-10.6-6.1-20.4-15.9-25.7-9.8-5.3-21.9-5.3-31.8 0-9.8 5.3-15.9 15.1-15.9 25.7v89.2c0 1.3 0.1 2.5 0.3 3.8-54.9 13.2-95.5 59.8-95.5 115.3s40.6 102.1 95.5 115.3c-0.2 1.2-0.3 2.5-0.3 3.7v446.1c0 10.6 6.1 20.4 15.9 25.7 9.8 5.3 21.9 5.3 31.8 0 9.8-5.3 15.9-15.1 15.9-25.7V449.4c0-1.2 0-2.4-0.2-3.7 55.1-13 95.9-59.7 95.9-115.2z m-82.3 42c-21.5 20.1-55.1 23.2-80.3 7.4-25.2-15.8-35-46-23.4-72.2 11.6-26.2 41.4-41.1 71.2-35.6 29.8 5.5 51.2 30 51.2 58.3 0 15.9-6.7 31-18.7 42.1z m0 0" fill="" p-id="4561"></path></svg>