<?xml version="1.0" standalone="no"?><!DOCTYPE svg PUBLIC "-//W3C//DTD SVG 1.1//EN" "http://www.w3.org/Graphics/SVG/1.1/DTD/svg11.dtd"><svg t="1623137373726" class="icon" viewBox="0 0 1024 1024" version="1.1" xmlns="http://www.w3.org/2000/svg" p-id="2584" data-spm-anchor-id="a313x.7781069.0.i0" xmlns:xlink="http://www.w3.org/1999/xlink" width="300" height="300"><defs><style type="text/css"></style></defs><path d="M816.503467 999.2192H207.4624A182.6816 182.6816 0 0 1 24.746667 816.469333V207.496533A182.613333 182.613333 0 0 1 207.4624 24.7808h365.431467c79.394133 0 146.397867 50.961067 171.554133 121.787733h72.021333a182.613333 182.613333 0 0 1 182.715734 182.715734V816.469333a182.613333 182.613333 0 0 1-182.6816 182.749867zM572.893867 85.674667H207.4624a121.344 121.344 0 0 0-120.285867 107.042133c32.221867-28.330667 74.001067-46.148267 120.285867-46.148267h470.357333a121.173333 121.173333 0 0 0-104.925866-60.893866z m365.397333 365.431466a30.378667 30.378667 0 0 0-30.446933-30.446933h-304.5376a30.378667 30.378667 0 0 0-30.446934 30.446933v182.715734c0 16.861867 13.585067 30.481067 30.446934 30.481066h304.5376a30.4128 30.4128 0 0 0 30.446933-30.481066v-182.715734z m0 274.056534H572.893867c-33.621333 0-60.928-27.306667-60.928-60.893867v-243.6096c0-33.621333 27.272533-60.893867 60.928-60.893867h365.397333v-30.481066a121.856 121.856 0 0 0-121.787733-121.821867H207.4624A121.856 121.856 0 0 0 85.674667 329.284267V816.469333a121.856 121.856 0 0 0 121.787733 121.821867h609.041067a121.856 121.856 0 0 0 121.787733-121.821867v-91.306666zM633.787733 512h60.893867v60.893867h-60.893867V512z" p-id="2585"></path></svg>